HIERARCHY
ROOT Hips
{
	OFFSET 0.000000 0.000000 0.000000 
	CHANNELS 6 Xposition Yposition Zposition Zrotation Yrotation Xrotation
	JOINT LeftUpLeg
	{
		OFFSET 1.363060 -1.794630 0.839290 
		CHANNELS 3 Zrotation Yrotation Xrotation
		JOINT LeftLeg
		{
			OFFSET 2.448110 -6.726130 0.000000 
			CHANNELS 3 Zrotation Yrotation Xrotation
			JOINT LeftFoot
			{
				OFFSET 2.562200 -7.039590 0.000000 
				CHANNELS 3 Zrotation Yrotation Xrotation
				JOINT LeftToeBase
				{
					OFFSET 0.157640 -0.433110 2.322550 
					CHANNELS 3 Zrotation Yrotation Xrotation
					End Site
					{
						OFFSET 0.000000 0.000000 0.000000 
					}
				}
			}
		}
	}
	JOINT RightUpLeg
	{
		OFFSET -1.305520 -1.794630 0.839290 
		CHANNELS 3 Zrotation Yrotation Xrotation
		JOINT RightLeg
		{
			OFFSET -2.542530 -6.985550 0.000000 
			CHANNELS 3 Zrotation Yrotation Xrotation
			JOINT RightFoot
			{
				OFFSET -2.568260 -7.056230 0.000000 
				CHANNELS 3 Zrotation Yrotation Xrotation
				JOINT RightToeBase
				{
					OFFSET -0.164730 -0.452590 2.363150 
					CHANNELS 3 Zrotation Yrotation Xrotation
					End Site
					{
						OFFSET 0.000000 0.000000 0.000000 
					}
				}
			}
		}
	}
	JOINT Spine
	{
		OFFSET 0.028270 2.035590 -0.193380 
		CHANNELS 3 Zrotation Yrotation Xrotation
		JOINT Spine1
		{
			OFFSET 0.056720 2.048850 -0.042750 
			CHANNELS 3 Zrotation Yrotation Xrotation
			JOINT Neck1
			{
				OFFSET -0.054170 1.746240 0.172020 
				CHANNELS 3 Zrotation Yrotation Xrotation
				JOINT Head
				{
					OFFSET 0.104070 1.761360 -0.123970 
					CHANNELS 3 Zrotation Yrotation Xrotation
					End Site
					{
						OFFSET 0.000000 0.000000 0.000000 
					}
				}
			}
			JOINT LeftArm
			{
				OFFSET 3.362410 1.200890 -0.311210 
				CHANNELS 3 Zrotation Yrotation Xrotation
				JOINT LeftForeArm
				{
					OFFSET 4.983000 -0.000000 -0.000000 
					CHANNELS 3 Zrotation Yrotation Xrotation
					JOINT LeftHand
					{
						OFFSET 3.483560 -0.000000 -0.000000 
						CHANNELS 3 Zrotation Yrotation Xrotation
						JOINT LeftHandIndex1
						{
							OFFSET 0.715260 -0.000000 -0.000000 
							CHANNELS 3 Zrotation Yrotation Xrotation
							End Site
							{
								OFFSET 0.000000 0.000000 0.000000 
							}
						}
					}
				}
			}
			JOINT RightArm
			{
				OFFSET -3.136600 1.374050 -0.404650 
				CHANNELS 3 Zrotation Yrotation Xrotation
				JOINT RightForeArm
				{
					OFFSET -5.241900 -0.000000 -0.000000 
					CHANNELS 3 Zrotation Yrotation Xrotation
					JOINT RightHand
					{
						OFFSET -3.444170 -0.000000 -0.000000 
						CHANNELS 3 Zrotation Yrotation Xrotation
						JOINT RightHandIndex1
						{
							OFFSET -0.622530 -0.000000 -0.000000 
							CHANNELS 3 Zrotation Yrotation Xrotation
							End Site
							{
								OFFSET 0.000000 0.000000 0.000000 
							}
						}
					}
				}
			}
		}
	}
}
MOTION
Frames: 6
Frame Time: 0.041667
-14.548620 17.799046 1.615838 178.855087 -86.506476 -175.760460 -8.212132 -0.521690 -15.353569 1.195564 11.167435 32.026485 2.272063 -5.711508 -4.309688 1.070000 -6.575800 -18.464500 11.334804 8.821819 -13.112110 -1.861210 -11.481404 34.158384 -0.716373 -0.586500 -7.142838 -1.131000 6.754600 -18.990400 2.012520 1.519766 -3.851415 0.023132 0.555353 -9.883261 1.933440 -13.121428 15.727080 -0.001400 -6.509800 4.080100 -26.223055 26.707345 -33.899407 128.595472 -53.558436 -97.054536 1.105113 -0.735064 -4.143636 -7.125000 0.000000 0.000000 64.965691 -10.506760 -41.589818 -22.804238 30.749361 -8.598070 1.061383 4.377850 -25.315974 7.125000 0.000000 0.000000 
-14.536761 17.799046 1.597391 173.905227 -87.561685 -170.959757 -8.201975 -0.924851 -15.136676 1.182957 11.117116 31.975736 2.284012 -5.865384 -4.026471 1.123300 -6.732400 -18.925000 11.327408 8.339187 -13.077124 -1.857070 -11.519834 34.184867 -0.574694 -1.083162 -7.306773 -1.167100 6.857800 -19.294800 1.961585 1.333375 -3.759522 -0.162431 0.456187 -9.722304 2.551971 -14.733906 15.285316 0.348900 -7.329600 3.985000 -29.493020 27.744704 -35.136851 126.604456 -54.177597 -95.656686 1.067556 -0.729989 -4.092496 -7.125000 0.000000 0.000000 64.042829 -10.104107 -38.823081 -23.459756 31.457113 -9.019524 1.054283 4.377938 -24.636921 7.125000 0.000000 0.000000 
-14.516185 17.798640 1.578639 167.273605 -88.562519 -164.462952 -8.116554 -1.312873 -14.952450 1.191786 11.061985 31.971604 2.307938 -6.054126 -3.754633 1.138400 -6.775900 -19.053000 11.399616 7.924881 -13.112384 -1.845373 -11.572777 34.203805 -0.471418 -1.441271 -7.421543 -1.138000 6.774800 -19.050000 1.929014 1.123603 -3.688360 -0.330212 0.336668 -9.672157 3.501238 -16.206695 14.757585 0.894500 -8.079900 3.900700 -32.791052 29.252025 -35.875654 124.888436 -54.654511 -94.369484 1.044964 -0.703737 -4.378973 -7.125000 0.000000 0.000000 63.155528 -9.684921 -35.920115 -24.285046 32.310917 -9.544856 1.064427 4.346325 -24.041292 7.125000 0.000000 0.000000 
-14.493076 17.798235 1.560395 153.310045 -89.606251 -150.639827 -8.032895 -1.631664 -14.723819 1.221905 10.958409 31.982857 2.346946 -6.318493 -3.461275 1.120800 -6.725100 -18.903300 11.456361 7.590439 -13.205961 -1.811494 -11.664469 34.185723 -0.408093 -1.671732 -7.515434 -1.070600 6.577500 -18.469600 1.886786 0.908473 -3.649276 -0.519737 0.188226 -9.729752 4.730043 -17.544312 14.209446 1.630300 -8.772500 3.867500 -36.138992 30.635880 -36.412559 123.142490 -55.075265 -93.042496 1.025285 -0.679985 -4.728482 -7.125000 0.000000 0.000000 62.371148 -9.306201 -32.970557 -25.251809 33.270360 -10.159921 1.085886 4.277527 -23.584049 7.125000 0.000000 0.000000 
-14.480102 17.798032 1.541847 -51.660665 -89.380019 54.204923 -7.828012 -1.871815 -14.546020 1.248454 10.886072 31.983457 2.403890 -6.634434 -3.123246 1.092600 -6.642700 -18.660900 11.664383 7.246562 -13.237567 -1.786504 -11.731717 34.188627 -0.328895 -1.954522 -7.651970 -1.064200 6.558400 -18.413500 1.870078 0.741187 -3.590695 -0.752832 0.080979 -9.616766 4.756762 -18.495798 14.098095 1.689400 -9.267200 3.812600 -39.422660 31.031649 -37.339559 120.411854 -55.737190 -91.015314 1.004474 -0.687798 -4.319735 -7.125000 0.000000 0.000000 61.551494 -8.746550 -30.231020 -26.222657 34.185568 -10.782474 1.104241 4.191048 -23.094532 7.125000 0.000000 0.000000 
-14.471081 17.796411 1.526035 -126.791778 -89.298406 129.248384 -7.910756 -1.977006 -14.838303 1.138895 11.146696 31.886007 2.419256 -6.754867 -2.885842 1.085100 -6.620500 -18.595800 11.608324 6.767550 -12.870356 -1.899198 -11.489346 34.292029 -0.346777 -1.895110 -7.667331 -1.077800 6.598900 -18.532400 1.789510 0.931370 -3.493708 -0.936598 0.388530 -9.447253 4.863181 -19.232766 14.105488 1.795000 -9.656800 3.839800 -42.795945 31.659944 -38.128219 118.072536 -56.195341 -89.224750 0.984905 -0.686591 -3.237138 -7.125000 0.000000 0.000000 60.762518 -8.029907 -27.633212 -27.282628 35.144362 -11.478598 1.134123 4.121658 -22.506687 7.125000 0.000000 0.000000 
